<?xml version="1.0" encoding="utf-8"?>
<!-- Generator: Adobe Illustrator 21.1.0, SVG Export Plug-In . SVG Version: 6.00 Build 0)  -->
<svg version="1.1" id="Слой_1" xmlns="http://www.w3.org/2000/svg" xmlns:xlink="http://www.w3.org/1999/xlink" x="0px" y="0px"
	 viewBox="0 180 500 100" style="enable-background:new 0 0 1366 768;" xml:space="preserve">
<style type="text/css">
	.st0{display:none;}
	.st1{fill:#020202;}
	.st2{fill:#FF0000;}
</style>
<g id="Слой_2" class="st0">
	
		<image style="display:inline;overflow:visible;enable-background:new    ;" width="228" height="471" xlink:href="photo_2018-04-26_09-31-02.jpg"  transform="matrix(1.0056 0 0 1.0056 541.925 132.0572)">
	</image>
</g>
<g id="Слой_1_1_">
	<g>
		<path class="st1" d="M80.8,129.8c17.8,0,35.3,0,53.2,0c0,3.4,2.1,7.4-3.6,9c-0.9,0.3-1.5,2.7-1.6,4.2
			c-1.9,23.5,5.1,43.3,24.4,58.1c7.2,5.5,6.7,5.7,2.1,13.6c-10.9,19.1-22.5,37.9-29.7,58.7c-1,3-2,6-2.8,9.1c-0.9,1.9-1.5,4.5-2,7.2
			c-1.2,6.4-1.2,6.4-1.6,9.3c-0.4,2.9-1.4,5.2-4.9,5.2c-3.9,0.3-4-7-4.1-11.4c0.2-2.8,1.4-62.9,1.1-71.9c-0.1-3.8,0.8-6,3.7-9.2
			c3.7-4.1,3.4-9.6-1.1-12.4c-3.5-2.2-7.2-2.7-10.6,0.2c-2.6,2.2-3.5,9.2-0.7,12.4c3.9,4.5,3.6,3,4.1,8.2c0.9,9.7,0.9,66.7,1,68.8
			c0.7,7.4,0.9,15.7-5.6,15.7c-3.5-0.6-4.1-4-5.4-10.3c-1.1-5.5-3-13.7-3.6-18.6c-0.8-2.7-1.8-5.4-2.9-8c-1.1-2.7-2.6-5.2-3.9-7.9
			c-2.2-4.5-2.8-5.3-4-8.1c-5.2-11.8-11.9-21-18.4-31.3c-7.5-11.9-7.6-11.8,2.5-21.7c6.7-6.5,14.5-12.7,16.3-22.2
			c2.1-11.2,2.4-22.7,3.4-34.2c0.1-0.7-0.7-2.1-1.3-2.3C79.4,138.6,80.4,134.6,80.8,129.8z M93.6,146.3c4.6-2.3,8.7-4.3,13.9-6.8
			c-5.3-2.6-9.3-4.6-13.9-6.9C93.6,137.4,93.6,141.4,93.6,146.3z M109.2,139.3c5.1,2.7,8.4,4.5,12.8,6.8c0-5,0-8.9,0-13.3
			C117.7,134.8,114.4,136.9,109.2,139.3z"/>
		<path class="st1" d="M106.2,365.5c-3.3-1.2-5.5,0.5-7.4,2.7s-3.7,5-6.2,6c1.2-2.8,4.9-8.1,2.5-8.1c-2.3,0-1.7,0.2-1.6-0.5
			c0.2-2.6,3-6.9,4.5-8.1c1.8-1.5,4-3.1,3.5-1.1s9.2,1.4,11.4,1.5c7.8,0.3-13.1,19.3-5.3,19.3c9.1,0,14.6-24,22.6-18
			c1.8,0.9,0,3.5-2.8,6.5c-3.5,3.9-8.4,8.4-5.4,11.1c6.8,6,15.5-10.5,22.5-15.5c-2-3-6,0-7-1c-1-3,3.5-7.9,6.6-7.3
			c7.9,1.4,9.8-9.7,14.4-7.7c3.3,1.5-3.4,5.3-4.3,7.7c1,1,3.4,0.1,4.4,0.1c-2,3-2.8,7.3-4.8,7.3c-9,1-14.3,14-9.3,16c6,4,11-9,17-15
			c4-4,10-5,15.5-3.8c0,3.4,0.2,5.8-1.5,7.4c-1.5,1.5-3.4,3.3-5.3,4.5c-3.1,1.5-6.7,3-9,7.2c1.3,1.9,3.6,2.8,5.1,2.6
			c6-1,10.3-5,13.9-9.7c0.8-1.7,4-2.3-0.9-3.1c-3.2-0.5,3.2-8.2,6.5-10.2c3.5,0.7-1.9,2.3,0.1,2.8c2.1,0.4,11-0.4,13-0.1
			c1,4.9-2,5.1-3.1,7.3c-1,2.1-2.8,3.7-3.8,5.8c-0.6,1.3-0.8,4.2-1,5.8c3.4,0.6,4.5-0.8,5.9-1.6c2.2-1.3,3.9-3.1,6-4.6
			c0.8-0.6,4.5-3.2,0.8,1c-3.8,4.2-6.6,7.7-11.1,11c-3.2,2.4-7.3,0-7.3-3.2c0-3.1,1.5-6.3,2.7-9.3c0.7-1.8,2.1-3.3,3.2-5.2
			c-4.3-0.3-7,1-9.5,4.4c-3,4.1-6.7,8.6-10.6,12c-4.2,3.6-7.4,5-10.4,4.2s-5.5-4.7-7.3-9.9c-5.1,4-9.5,12.3-16.5,9.2
			c-4-2-1.6-9.2,0.4-13.2c-6,4-8,14-17,12c-3-1-4-6-5-9c-1,3-5.5,5.2-7.8,7.9c-2.4,1.3-4.7,1.4-5.9,0.6c-1.4-1-2-4.9-1.4-6.7
			c0.8-2,1.8-3.9,2.8-5.8S105.3,367.4,106.2,365.5z M172.4,361c-0.8-0.8-0.8-0.8-2.6-0.5c-4,2.9-7.2,5.7-7.2,8.7
			c0,4,5.2-1.8,6.1-2.3C170.3,365.4,171.7,363.5,172.4,361z"/>
		<path class="st1" d="M145.9,48.7c-1-4.1-1.8-8.2-2.9-12.3c-2.7-10.7-6.9-13.4-17.9-12.8c-3,0.2-6.1-1-10.5-1.7
			c-2.7,2.8-7.6,2-12.8,1.8c-8.2-0.3-16.5,0.9-24.8,1.8c-1.1,0.1-2.7,1.5-3.1,2.6c-1.6,4.5-2.9,9.1-4.1,13.8
			c-0.8,2.8-1.3,5.7-2.1,9.8C63.1,31.4,68.9,5.5,92.3,3c8.5-0.9,17-1.7,24,5c0.9,0.8,3,0.8,4.5,0.6c13.6-2.2,21.6,2.9,25.2,16.3
			C148,32.8,148.4,40.7,145.9,48.7z"/>
		<path class="st2" d="M4.6,458.1c66.8,0,132.5,0,198.1,0c0,0.4,0,0.7,0,1.1c-66.3,0-132.5,0-198.8,0c-0.5-2.5-0.9-44.9-1.2-103
			c0-2.5,0-5.1,0-7.7c0.1-5.5,0.2-11,0.2-16.5c0-2.9,0.1-5.7,0.1-8.5c0.1-8,0.1-17-0.2-24.6c0-2.8-0.1-5.5-0.1-8.3s-0.1-5.5-0.2-8.3
			c0-2.9,0-5.8,0-8.7C2.4,148.2,3,5.2,4.5,3.1c0,92.4,0,184.4,0,276.3c0,3.8,0,7.7,0,11.5C5,303.5,5,316.5,4.8,329.2
			c0,3.2-0.1,6.4-0.1,9.6c-0.1,3.2-0.1,6.3-0.2,9.5c0,3.3,0,6.6,0,10C4.6,391.6,4.6,424.8,4.6,458.1z"/>
		<path class="st1" d="M33,355.7c-2.3-7.7,3.9-12.3,9.9-17.3c2.1-1.2-0.6,2.3,1.3,1.9c4.5-1,14.1-4.6,19.8-2.4
			c5.2,8.1-2.8,17.3-8.2,24c-1.4,2-2.8,4-3.8,6.3c-1.9,2.6-3.9,5.2-5.8,7.7c0.4,0.4,0.8,0.9,1.2,1.3c2-1.4,4.3-2.6,5.9-4.4
			c2-2.2,3.9-4.4,5.7-6.7c6.2-9.8,13.2-17.9,22.2-25.9c9.1,4.2-2,16-6.2,22.4c-1.5,2.5-2.8,5-3.5,7.4c-1.4,2.5-2.1,5.5-2.4,8.7
			c2.7-1.3,5-2.7,7-4.4c1.7-1.5,3.2-3.1,4.5-4.9c1.3-1.7,2.5-3.5,3.6-5.3c8-9.7,4-14.7,10-23c6.5,1.7,3,11,0.6,15.8
			c-1.1,2.5-2.5,5-3.9,7.4s-2.8,4.8-3.9,7.1c-1.3,1.9-2.7,3.7-4.2,5.5c-1.5,1.8-3.1,3.5-4.9,5.1c-0.7,0.7-1.5,1.4-2.4,1.8
			c-2.8,1.6-7.2,4-10.9,1.5c-3.6-2.4-2.7-5.9-1.9-9.6c0.5-2,1.7-3.6,2.4-5.7s1.4-4.5,2.1-7.3c-2.5,3.1-4.8,5.9-7.1,8.5
			c-2.3,2.6-4.6,5-6.8,7.4c-1.9,2-4.1,4-6.3,5.6c-3.7,2.6-7.9,1.9-8.4-2.6c-0.3-3.1,1.1-7.3,2.9-9.7c1.2-1.7,2.5-3.4,3.8-5.1
			c1.2-1.7,2.6-3.3,4-5c4.7-4.8,8.6-9.8,9.6-16.8c-8,0-15.1,3.2-21.1,7.8C36.5,353.9,35,354.5,33,355.7z"/>
		<path class="st1" d="M170.9,396.3c-7.3,10.6-17.1,21.7-25.7,32.7c0.2,1.4,0.2,2.3,1.6,2.3c3.3-3.9,7.3-8.1,10.7-11.9
			c1.2-1.4,2.6-2.7,4.2-3.5c1.2-0.5,3.3-1.7,4.6-2c1.1-0.2,2.1,0.6,2.3,1.7c0.2,1.8-0.2,4.6-1,5.9c-2.4,4.2-5.2,6.2-10.6,8.9
			c0.5,2.4,5.1,4.4,7.3,2.1c6.1-6.2,11.8-12.9,17.6-19.4c1.1-1.2,2.2-2.4,3.7-4c5.8,9.9,3.9,18.2-6.1,24.1c0.5,0.4,0.9,0.8,1.4,1.2
			c4-1.1,6.6-2.6,10.5-5.1c-6.3,10.8-16.9,12.4-21.9,1.6c-3.3,2.3-7.2,7.4-10.6,7.6c-3,0.1-6.2-4-9.6-6.5c-1.2,1.3-3.9,4.7-5.1,4.9
			c-1.1-0.8-1.8-3.2-2.2-5.5c-2.4,2-4.5,4.2-6.9,5.7c-1.2,0.8-3.4,1.3-4.4,0.7c-1.1-0.6-2.2-2.9-1.9-4.1c1.1-3.9,2.8-7.6,4.9-12.7
			c-2.7,1.4-5.3,1.9-6.8,3.5c-3.5,3.8-6.4,8-12.2,8.8c-1,0.1-1.6,1.7-2.7,2.1c-2.6,1-6.2,3.2-7.8,2.2c-2.4-1.4-4.4-5-4.8-7.9
			c0.8-7,7.7-15.3,14.2-15.8c3.8-1,6.1,3.6,5.8,8.2c-0.5,2.4-1.5,4.7-2.3,7.1c5-0.3,10.7-6.5,5.7-5.9c-0.5-4.7,3.3-8.7,6.1-10.8
			c2.6,0.3,0.3,2.8,1.6,3s4.8-0.8,6-0.6c1.3,0.2,3.5,0.6,3.7,1.4c0.4,1.3,0,3.3-0.8,4.5c-1.5,2.5-3.7,4.7-5.3,7.2
			c-0.5,0.7-0.2,2.3,0.3,3.1c0.3,0.4,2.1,0.6,2.6,0.1c2.3-2,5.2-3.8,6.3-6.4c7.4-11.9,13-18.9,20.8-27.7c1.3-1.2,3.2-1.8,4.8-2.6
			C169.7,395.1,170.3,395.7,170.9,396.3z M113.7,421.2c1-2.3-1.2-1.8-1.5-2.2c-2.7,3.1-6.7,4.7-7.9,9.4c-0.6,0.9-0.5,4.2,1.5,4.8
			c0.2,0.1,0.3,0,0.5,0.1c0.7,0.8,4.9-1.4,5.7-3.1C113,426.7,113.2,424.3,113.7,421.2z M177.8,431.7c5.4-1.2,6.9-8.9,3.1-13.5
			c-2.8,3-5.4,5.9-7.3,8C175.2,428.5,175.7,429.9,177.8,431.7z M152.1,427.4c5.1,2.7,10.4-1.9,11.5-10.1
			C159.2,421.1,155.9,424,152.1,427.4z"/>
		<path class="st1" d="M80.8,433c12.3-10.1,15.8-19.1,17.5-30.3c0.9-0.9,5.4-5.2,6.1-4.9c0.1,1.6,0.7,3.4,0.3,4.9
			c-3.5,12.2-8.6,23.4-18.4,32c-2.8,2.4-6.4,7.7-10.4,4.9c-3.8-2.7-2.7-9.1-1.5-13c0.9-2.9,2.1-5.8,3.7-10.1
			c-5.2,5.7-9.5,10.4-13.7,15c-0.7,0.7-1.3,1.5-2.1,2.1c-2.5,1.9-6.4,7.4-9.9,4.4c-3.3-2.8-2-7.7,0.5-11.1
			c3.4-6,10.2-12.7,14.7-18.6c1.5-2,2.6-3.4,2.7-6.4c-2.7-1.2-5-0.2-7.5,0.8c-3.9,1.4-6.8,3.7-10.5,5.6c-3.3,1.9-4.8,2-6.6,2.8h-0.1
			c-3.1-1.2,0.3-9,8.9-14.6c3.3-2.1,1.8,1,2.9,0.9c2.1-0.2,3-1.8,8.6-2.9c3.3,0.1,7.5,0.5,8.6,2.3c1.6,2.7,1.5,5.7,0.2,8.8
			c-1.9,4.5-5.4,8.3-8.4,12.3c-2.6,3.6-6.7,9-9.5,12.6c0,0-0.3,1.1,1.3,1.3c3.8-1.9,5.9-4.9,8.9-8.3c10.9-12,11.8-14,17.8-20.9
			c1.9-2.2,2.2-2.1,4.2-4c3.1,0.4,3.8-0.1,3.4,5.3c-6,8.8-8.1,13.4-11.9,20.2c-1.2,2.1-2.4,5-3.2,7.3
			C77.9,431.7,76.7,434.4,80.8,433z"/>
		<path class="st1" d="M209.9,338.5c-7.9-4-9.9-4.2-20.6-5.1c-2.3-0.2-8,0.7-10.3,0.9c-19,2.4-36.9,5.5-56,0.3c-3-0.8-1.4-0.4-9-3
			c-8.8-4.7-5.2-2.7-8.8-5.2c-0.2-0.1-1.3-1.1-2.3-2.9c0.2,0-0.6-0.2-0.5-2.5c0.8-1.7,0.2-2.7,5.9-7.5c-2.4,1.7-2.6,1-7.6,6.1
			c-3.4,3.4-3.9,6.5-3.6,7.4c1.6,5.8,2,5.1,4.7,7.2c5.1,3.3,6.5,3.8,11.9,5.8c7.8,2.4,9.8,2.6,14.8,3.1c18.8,1.9,36.9-1,56.8-2.5
			c0.1,0-3.9,0-3.8,0c2.7-0.1,6.5,0,8.2,0.1c6.7,0.5,8.6,1.7,13.5,4.1c3.7,1.9,5.3,2,7.3,5.3c1.8,2.9,2.9,4.6,1.5,10.2
			c0,0-1.9,5.2-1.6,5C221.5,355.2,222.2,344.8,209.9,338.5z"/>
		<path class="st1" d="M136.9,348.9c-1.3,2-1.9,6.3-4.5,5.3c-5.1-1.9-1.5-4.6,1.6-7.6C132.8,347.3,134.9,347.4,136.9,348.9z"/>
		<path class="st1" d="M97.8,326.4c2.1,6.8-0.1,1.2,2.6,6c8,4.5,5,3.3,14,7"/>
		<path class="st1" d="M97.8,326.4c2.1,6.8,1.8,4.8,3.3,6.1c8,4.5,4.3,3.1,13.3,6.9"/>
	</g>
</g>
</svg>
